# Made using Asset Forge (www.assetforge.io) version 1.3 

mtllib empty_square_thin.mtl 

g block_default_1

v -0.5 0 2.5
v -0.5 0 2.2
v -1.5 0 2.5
v -1.5 0 2.2
v -1.5 0.1 2.2
v -1.5 0.1 2.5
v -0.5 0.1 2.2
v -0.5 0.1 2.5
vn 0 -0.1 0
vn -1 0 0
vn 0 0 -0.3
vn 0 0 0.3
vn 1 0 0
vn 0 0.1 0
vt 0.5 -2.5
vt 0.5 -2.2
vt 1.5 -2.5
vt 1.5 -2.2
vt 2.2 0
vt 2.2 0.1
vt 2.5 0
vt 2.5 0.1
vt 1.5 0
vt 0.5 0
vt 1.5 0.1
vt 0.5 0.1
vt -0.5 0
vt -1.5 0
vt -0.5 0.1
vt -1.5 0.1
vt -2.2 0.1
vt -2.2 0
vt -2.5 0.1
vt -2.5 0
vt 0.5 2.2
vt 0.5 2.5
vt 1.5 2.2
vt 1.5 2.5

usemtl _defaultMat (Instance)
usemap _defaultMat (Instance)
f 3/3/1 2/2/1 1/1/1
f 2/2/1 3/3/1 4/4/1
f 3/7/2 5/6/2 4/5/2
f 5/6/2 3/7/2 6/8/2
f 5/11/3 2/10/3 4/9/3
f 2/10/3 5/11/3 7/12/3
f 8/15/4 3/14/4 1/13/4
f 3/14/4 8/15/4 6/16/4
f 8/19/5 2/18/5 7/17/5
f 2/18/5 8/19/5 1/20/5
f 5/23/6 8/22/6 7/21/6
f 8/22/6 5/23/6 6/24/6
g block_default_2

v 1.5 0 0.5
v 1.5 0 -0.5
v 1.2 0 0.5
v 1.2 0 -0.5
v 1.2 0.1 -0.5
v 1.2 0.1 0.5
v 1.5 0.1 -0.5
v 1.5 0.1 0.5
vn -0.3 0 0
vn 0 0 -1
vn 0 0 1
vn 0.3 0 0
vt -1.5 -0.5
vt -1.5 0.5
vt -1.2 -0.5
vt -1.2 0.5
vt -1.2 0
vt -1.2 0.1
vt 1.2 0
vt 1.2 0.1

usemtl _defaultMat (Instance) (Instance)
usemap _defaultMat (Instance) (Instance)
f 11/27/1 10/26/1 9/25/1
f 10/26/1 11/27/1 12/28/1
f 11/10/7 13/15/7 12/13/7
f 13/15/7 11/10/7 14/12/7
f 13/30/8 10/14/8 12/29/8
f 10/14/8 13/30/8 15/16/8
f 16/11/9 11/31/9 9/9/9
f 11/31/9 16/11/9 14/32/9
f 16/15/10 10/10/10 15/12/10
f 10/10/10 16/15/10 9/13/10
f 13/27/6 16/26/6 15/25/6
f 16/26/6 13/27/6 14/28/6
g block_default_3

v 0.5 0 2.5
v 0.5 0 2.2
v 0.5 0.1 2.2
v 0.5 0.1 2.5
vt -0.5 -2.5
vt -0.5 -2.2
vt -0.5 2.2
vt -0.5 2.5

usemtl _defaultMat (Instance) (Instance) (Instance)
usemap _defaultMat (Instance) (Instance) (Instance)
f 1/1/1 18/34/1 17/33/1
f 18/34/1 1/1/1 2/2/1
f 1/7/2 7/6/2 2/5/2
f 7/6/2 1/7/2 8/8/2
f 7/12/3 18/13/3 2/10/3
f 18/13/3 7/12/3 19/15/3
f 20/12/4 1/13/4 17/10/4
f 1/13/4 20/12/4 8/15/4
f 20/19/5 18/18/5 19/17/5
f 18/18/5 20/19/5 17/20/5
f 7/21/6 20/36/6 19/35/6
f 20/36/6 7/21/6 8/22/6
g block_default_4

v 0.5 0 -2.2
v 0.5 0 -2.5
v -0.5 0 -2.2
v -0.5 0 -2.5
v -0.5 0.1 -2.5
v -0.5 0.1 -2.2
v 0.5 0.1 -2.5
v 0.5 0.1 -2.2

usemtl _defaultMat (Instance) (Instance) (Instance)
usemap _defaultMat (Instance) (Instance) (Instance)
f 23/21/1 22/36/1 21/35/1
f 22/36/1 23/21/1 24/22/1
f 23/18/2 25/19/2 24/20/2
f 25/19/2 23/18/2 26/17/2
f 25/12/3 22/13/3 24/10/3
f 22/13/3 25/12/3 27/15/3
f 28/12/4 23/13/4 21/10/4
f 23/13/4 28/12/4 26/15/4
f 28/6/5 22/7/5 27/8/5
f 22/7/5 28/6/5 21/5/5
f 25/1/6 28/34/6 27/33/6
f 28/34/6 25/1/6 26/2/6
g block_default_5

v -1.5 0 -2.2
v -1.5 0 -2.5
v -1.5 0.1 -2.5
v -1.5 0.1 -2.2

usemtl _defaultMat (Instance) (Instance) (Instance) (Instance)
usemap _defaultMat (Instance) (Instance) (Instance) (Instance)
f 29/23/1 24/22/1 23/21/1
f 24/22/1 29/23/1 30/24/1
f 29/18/2 31/19/2 30/20/2
f 31/19/2 29/18/2 32/17/2
f 31/11/3 24/10/3 30/9/3
f 24/10/3 31/11/3 25/12/3
f 26/15/4 29/14/4 23/13/4
f 29/14/4 26/15/4 32/16/4
f 26/6/5 24/7/5 25/8/5
f 24/7/5 26/6/5 23/5/5
f 31/3/6 26/2/6 25/1/6
f 26/2/6 31/3/6 32/4/6
g block_default_6

v -2.5 0 -2.2
v -2.5 0 -2.5
v -2.5 0.1 -2.5
v -2.5 0.1 -2.2
vt 2.5 2.2
vt 2.5 2.5
vt 2.5 -2.5
vt 2.5 -2.2

usemtl _defaultMat (Instance) (Instance) (Instance) (Instance) (Instance)
usemap _defaultMat (Instance) (Instance) (Instance) (Instance) (Instance)
f 33/37/1 30/24/1 29/23/1
f 30/24/1 33/37/1 34/38/1
f 33/18/2 35/19/2 34/20/2
f 35/19/2 33/18/2 36/17/2
f 35/8/3 30/9/3 34/7/3
f 30/9/3 35/8/3 31/11/3
f 32/16/4 33/20/4 29/14/4
f 33/20/4 32/16/4 36/19/4
f 32/6/5 30/7/5 31/8/5
f 30/7/5 32/6/5 29/5/5
f 35/39/6 32/4/6 31/3/6
f 32/4/6 35/39/6 36/40/6
g block_default_7

v -3.2 0 0.5
v -3.2 0 -0.5
v -3.5 0 0.5
v -3.5 0 -0.5
v -3.5 0.1 -0.5
v -3.5 0.1 0.5
v -3.2 0.1 -0.5
v -3.2 0.1 0.5
vt 3.2 -0.5
vt 3.2 0.5
vt 3.5 -0.5
vt 3.5 0.5
vt 3.5 0
vt 3.2 0
vt 3.5 0.1
vt 3.2 0.1
vt -3.2 0
vt -3.5 0
vt -3.2 0.1
vt -3.5 0.1

usemtl _defaultMat (Instance) (Instance) (Instance) (Instance) (Instance) (Instance)
usemap _defaultMat (Instance) (Instance) (Instance) (Instance) (Instance) (Instance)
f 39/43/1 38/42/1 37/41/1
f 38/42/1 39/43/1 40/44/1
f 39/10/7 41/15/7 40/13/7
f 41/15/7 39/10/7 42/12/7
f 41/47/8 38/46/8 40/45/8
f 38/46/8 41/47/8 43/48/8
f 44/51/9 39/50/9 37/49/9
f 39/50/9 44/51/9 42/52/9
f 44/15/10 38/10/10 43/12/10
f 38/10/10 44/15/10 37/13/10
f 41/43/6 44/42/6 43/41/6
f 44/42/6 41/43/6 42/44/6
g block_default_8

v -2.5 0 2.5
v -2.5 0 2.2
v -2.5 0.1 2.2
v -2.5 0.1 2.5

usemtl _defaultMat (Instance) (Instance) (Instance) (Instance) (Instance) (Instance) (Instance)
usemap _defaultMat (Instance) (Instance) (Instance) (Instance) (Instance) (Instance) (Instance)
f 45/39/1 4/4/1 3/3/1
f 4/4/1 45/39/1 46/40/1
f 45/7/2 47/6/2 46/5/2
f 47/6/2 45/7/2 48/8/2
f 47/8/3 4/9/3 46/7/3
f 4/9/3 47/8/3 5/11/3
f 6/16/4 45/20/4 3/14/4
f 45/20/4 6/16/4 48/19/4
f 6/19/5 4/18/5 5/17/5
f 4/18/5 6/19/5 3/20/5
f 47/37/6 6/24/6 5/23/6
f 6/24/6 47/37/6 48/38/6
g block_default_9

v -3.2 0 2.5
v -3.2 0 1.5
v -3.5 0 2.5
v -3.5 0 1.5
v -3.5 0.1 1.5
v -3.5 0.1 2.5
v -3.2 0.1 1.5
v -3.2 0.1 2.5
vt 3.2 -2.5
vt 3.2 -1.5
vt 3.5 -2.5
vt 3.5 -1.5
vt 3.2 1.5
vt 3.2 2.5
vt 3.5 1.5
vt 3.5 2.5

usemtl _defaultMat (Instance) (Instance) (Instance) (Instance) (Instance) (Instance) (Instance) (Instance)
usemap _defaultMat (Instance) (Instance) (Instance) (Instance) (Instance) (Instance) (Instance) (Instance)
f 51/55/1 50/54/1 49/53/1
f 50/54/1 51/55/1 52/56/1
f 51/7/7 53/11/7 52/9/7
f 53/11/7 51/7/7 54/8/7
f 53/47/8 50/46/8 52/45/8
f 50/46/8 53/47/8 55/48/8
f 56/51/9 51/50/9 49/49/9
f 51/50/9 56/51/9 54/52/9
f 56/19/10 50/14/10 55/16/10
f 50/14/10 56/19/10 49/20/10
f 53/59/6 56/58/6 55/57/6
f 56/58/6 53/59/6 54/60/6
g block_default_10


usemtl _defaultMat (Instance) (Instance) (Instance) (Instance) (Instance) (Instance) (Instance) (Instance) (Instance)
usemap _defaultMat (Instance) (Instance) (Instance) (Instance) (Instance) (Instance) (Instance) (Instance) (Instance)
f 52/56/1 37/41/1 50/54/1
f 37/41/1 52/56/1 39/43/1
f 52/9/7 42/12/7 39/10/7
f 42/12/7 52/9/7 53/11/7
f 42/47/8 37/46/8 39/45/8
f 37/46/8 42/47/8 44/48/8
f 55/51/9 52/50/9 50/49/9
f 52/50/9 55/51/9 53/52/9
f 55/16/10 37/13/10 44/15/10
f 37/13/10 55/16/10 50/14/10
f 42/44/6 55/57/6 44/42/6
f 55/57/6 42/44/6 53/59/6
g block_default_11

v 1.5 0 2.5
v 1.5 0 2.2
v 1.5 0.1 2.2
v 1.5 0.1 2.5
vt -1.5 -2.5
vt -1.5 -2.2
vt -1.5 2.2
vt -1.5 2.5

usemtl _defaultMat (Instance) (Instance) (Instance)
usemap _defaultMat (Instance) (Instance) (Instance)
f 17/33/1 58/62/1 57/61/1
f 58/62/1 17/33/1 18/34/1
f 17/7/2 19/6/2 18/5/2
f 19/6/2 17/7/2 20/8/2
f 19/15/3 58/14/3 18/13/3
f 58/14/3 19/15/3 59/16/3
f 60/11/4 17/10/4 57/9/4
f 17/10/4 60/11/4 20/12/4
f 60/19/5 58/18/5 59/17/5
f 58/18/5 60/19/5 57/20/5
f 19/35/6 60/64/6 59/63/6
f 60/64/6 19/35/6 20/36/6
g block_default_12

v 1.5 0 1.5
v 1.2 0 1.5
v 1.2 0.1 1.5
v 1.5 0.1 1.5
vt -1.5 -1.5
vt -1.2 -1.5
vt -1.5 1.5
vt -1.2 1.5

usemtl _defaultMat (Instance) (Instance) (Instance) (Instance)
usemap _defaultMat (Instance) (Instance) (Instance) (Instance)
f 62/66/1 9/25/1 61/65/1
f 9/25/1 62/66/1 11/27/1
f 62/9/7 14/12/7 11/10/7
f 14/12/7 62/9/7 63/11/7
f 14/30/8 9/14/8 11/29/8
f 9/14/8 14/30/8 16/16/8
f 64/11/9 62/31/9 61/9/9
f 62/31/9 64/11/9 63/32/9
f 64/16/10 9/13/10 16/15/10
f 9/13/10 64/16/10 61/14/10
f 14/28/6 64/67/6 16/26/6
f 64/67/6 14/28/6 63/68/6
g block_default_13

v 1.5 0 -1.5
v 1.2 0 -1.5
v 1.2 0.1 -1.5
v 1.5 0.1 -1.5

usemtl _defaultMat (Instance) (Instance) (Instance) (Instance) (Instance)
usemap _defaultMat (Instance) (Instance) (Instance) (Instance) (Instance)
f 12/28/1 65/67/1 10/26/1
f 65/67/1 12/28/1 66/68/1
f 12/13/7 67/16/7 66/14/7
f 67/16/7 12/13/7 13/15/7
f 67/30/8 65/14/8 66/29/8
f 65/14/8 67/30/8 68/16/8
f 15/11/9 12/31/9 10/9/9
f 12/31/9 15/11/9 13/32/9
f 15/12/10 65/9/10 68/11/10
f 65/9/10 15/12/10 10/10/10
f 67/66/6 15/25/6 68/65/6
f 15/25/6 67/66/6 13/27/6
g block_default_14

v 1.5 0 -2.2
v 1.5 0 -2.5
v 1.5 0.1 -2.5
v 1.5 0.1 -2.2

usemtl _defaultMat (Instance) (Instance) (Instance) (Instance) (Instance) (Instance)
usemap _defaultMat (Instance) (Instance) (Instance) (Instance) (Instance) (Instance)
f 21/35/1 70/64/1 69/63/1
f 70/64/1 21/35/1 22/36/1
f 21/18/2 27/19/2 22/20/2
f 27/19/2 21/18/2 28/17/2
f 27/15/3 70/14/3 22/13/3
f 70/14/3 27/15/3 71/16/3
f 72/11/4 21/10/4 69/9/4
f 21/10/4 72/11/4 28/12/4
f 72/6/5 70/7/5 71/8/5
f 70/7/5 72/6/5 69/5/5
f 27/33/6 72/62/6 71/61/6
f 72/62/6 27/33/6 28/34/6
g block_default_15

v -3.2 0 -1.5
v -3.2 0 -2.5
v -3.5 0 -1.5
v -3.5 0 -2.5
v -3.5 0.1 -2.5
v -3.5 0.1 -1.5
v -3.2 0.1 -2.5
v -3.2 0.1 -1.5
vt 3.2 1.5
vt 3.2 2.5
vt 3.5 1.5
vt 3.5 2.5
vt 3.5 0
vt 3.2 0
vt 3.5 0.1
vt 3.2 0.1
vt -3.2 0
vt -3.5 0
vt -3.2 0.1
vt -3.5 0.1
vt 3.2 -2.5
vt 3.2 -1.5
vt 3.5 -2.5
vt 3.5 -1.5

usemtl _defaultMat (Instance) (Instance) (Instance) (Instance) (Instance) (Instance) (Instance)
usemap _defaultMat (Instance) (Instance) (Instance) (Instance) (Instance) (Instance) (Instance)
f 75/71/1 74/70/1 73/69/1
f 74/70/1 75/71/1 76/72/1
f 75/14/7 77/19/7 76/20/7
f 77/19/7 75/14/7 78/16/7
f 77/75/8 74/74/8 76/73/8
f 74/74/8 77/75/8 79/76/8
f 80/79/9 75/78/9 73/77/9
f 75/78/9 80/79/9 78/80/9
f 80/11/10 74/7/10 79/8/10
f 74/7/10 80/11/10 73/9/10
f 77/83/6 80/82/6 79/81/6
f 80/82/6 77/83/6 78/84/6
g block_default_16

v -3.2 0 -0.5
v -3.5 0 -0.5
v -3.5 0.1 -0.5
v -3.2 0.1 -0.5
vt 3.2 0.5
vt 3.5 0.5
vt 3.2 -0.5
vt 3.5 -0.5

usemtl _defaultMat (Instance) (Instance) (Instance) (Instance) (Instance) (Instance) (Instance) (Instance)
usemap _defaultMat (Instance) (Instance) (Instance) (Instance) (Instance) (Instance) (Instance) (Instance)
f 82/86/1 73/69/1 81/85/1
f 73/69/1 82/86/1 75/71/1
f 82/13/7 78/16/7 75/14/7
f 78/16/7 82/13/7 83/15/7
f 78/75/8 73/74/8 75/73/8
f 73/74/8 78/75/8 80/76/8
f 84/79/9 82/78/9 81/77/9
f 82/78/9 84/79/9 83/80/9
f 84/12/10 73/9/10 80/11/10
f 73/9/10 84/12/10 81/10/10
f 78/84/6 84/87/6 80/82/6
f 84/87/6 78/84/6 83/88/6
g block_default_17

v 1.5 0 2.5
v 1.5 0 1.5
v 1.2 0 2.5
v 1.2 0 1.5
v 1.2 0.1 1.5
v 1.2 0.1 2.5
v 1.5 0.1 1.5
v 1.5 0.1 2.5
vt -1.5 -2.5
vt -1.5 -1.5
vt -1.2 -2.5
vt -1.2 -1.5
vt -1.2 0
vt -1.5 0
vt -1.2 0.1
vt -1.5 0.1
vt 1.5 0
vt 1.2 0
vt 1.5 0.1
vt 1.2 0.1
vt -1.5 1.5
vt -1.5 2.5
vt -1.2 1.5
vt -1.2 2.5

usemtl _defaultMat (Instance) (Instance) (Instance) (Instance) (Instance) (Instance) (Instance) (Instance) (Instance)
usemap _defaultMat (Instance) (Instance) (Instance) (Instance) (Instance) (Instance) (Instance) (Instance) (Instance)
f 87/91/1 86/90/1 85/89/1
f 86/90/1 87/91/1 88/92/1
f 87/7/7 89/11/7 88/9/7
f 89/11/7 87/7/7 90/8/7
f 89/95/8 86/94/8 88/93/8
f 86/94/8 89/95/8 91/96/8
f 92/99/9 87/98/9 85/97/9
f 87/98/9 92/99/9 90/100/9
f 92/19/10 86/14/10 91/16/10
f 86/14/10 92/19/10 85/20/10
f 89/103/6 92/102/6 91/101/6
f 92/102/6 89/103/6 90/104/6
g block_default_18

v 1.5 0.1 -2.3
v 1.5 0.1 -1.3
v 1.2 0.1 -2.3
v 1.2 0.1 -1.3
v 1.2 -2.235174E-08 -1.3
v 1.2 -2.235174E-08 -2.3
v 1.5 -2.235174E-08 -1.3
v 1.5 -2.235174E-08 -2.3
vt -1.5 -2.3
vt -1.5 -1.3
vt -1.2 -2.3
vt -1.2 -1.3
vt -1.3 0.1
vt -1.3 -2.235174E-08
vt -2.3 0.1
vt -2.3 -2.235174E-08
vt 1.2 0.1
vt 1.5 0.1
vt 1.2 -2.235174E-08
vt 1.5 -2.235174E-08
vt -1.5 0.1
vt -1.2 0.1
vt -1.5 -2.235174E-08
vt -1.2 -2.235174E-08
vt 1.3 -2.235174E-08
vt 1.3 0.1
vt 2.3 -2.235174E-08
vt 2.3 0.1
vt -1.5 1.3
vt -1.5 2.3
vt -1.2 1.3
vt -1.2 2.3

usemtl _defaultMat (Instance) (Instance) (Instance) (Instance) (Instance) (Instance) (Instance) (Instance) (Instance) (Instance)
usemap _defaultMat (Instance) (Instance) (Instance) (Instance) (Instance) (Instance) (Instance) (Instance) (Instance) (Instance)
f 95/107/6 94/106/6 93/105/6
f 94/106/6 95/107/6 96/108/6
f 95/111/7 97/110/7 96/109/7
f 97/110/7 95/111/7 98/112/7
f 97/115/9 94/114/9 96/113/9
f 94/114/9 97/115/9 99/116/9
f 100/119/8 95/118/8 93/117/8
f 95/118/8 100/119/8 98/120/8
f 100/123/10 94/122/10 99/121/10
f 94/122/10 100/123/10 93/124/10
f 97/127/1 100/126/1 99/125/1
f 100/126/1 97/127/1 98/128/1
g block_default_19

v -2.3 0 2.5
v -2.3 0 2.2
v -3.3 0 2.5
v -3.3 0 2.2
v -3.3 0.1 2.2
v -3.3 0.1 2.5
v -2.3 0.1 2.2
v -2.3 0.1 2.5
vt 2.3 -2.5
vt 2.3 -2.2
vt 3.3 -2.5
vt 3.3 -2.2
vt 3.3 0
vt 2.3 0
vt 3.3 0.1
vt 2.3 0.1
vt -2.3 0
vt -3.3 0
vt -2.3 0.1
vt -3.3 0.1
vt 2.3 2.2
vt 2.3 2.5
vt 3.3 2.2
vt 3.3 2.5

usemtl _defaultMat (Instance) (Instance) (Instance) (Instance) (Instance) (Instance) (Instance) (Instance)
usemap _defaultMat (Instance) (Instance) (Instance) (Instance) (Instance) (Instance) (Instance) (Instance)
f 103/131/1 102/130/1 101/129/1
f 102/130/1 103/131/1 104/132/1
f 103/7/2 105/6/2 104/5/2
f 105/6/2 103/7/2 106/8/2
f 105/135/3 102/134/3 104/133/3
f 102/134/3 105/135/3 107/136/3
f 108/139/4 103/138/4 101/137/4
f 103/138/4 108/139/4 106/140/4
f 108/19/5 102/18/5 107/17/5
f 102/18/5 108/19/5 101/20/5
f 105/143/6 108/142/6 107/141/6
f 108/142/6 105/143/6 106/144/6
g block_default_20

v -2.3 0 -2.2
v -2.3 0 -2.5
v -3.3 0 -2.2
v -3.3 0 -2.5
v -3.3 0.1 -2.5
v -3.3 0.1 -2.2
v -2.3 0.1 -2.5
v -2.3 0.1 -2.2

usemtl _defaultMat (Instance) (Instance) (Instance) (Instance) (Instance) (Instance)
usemap _defaultMat (Instance) (Instance) (Instance) (Instance) (Instance) (Instance)
f 111/143/1 110/142/1 109/141/1
f 110/142/1 111/143/1 112/144/1
f 111/18/2 113/19/2 112/20/2
f 113/19/2 111/18/2 114/17/2
f 113/135/3 110/134/3 112/133/3
f 110/134/3 113/135/3 115/136/3
f 116/139/4 111/138/4 109/137/4
f 111/138/4 116/139/4 114/140/4
f 116/6/5 110/7/5 115/8/5
f 110/7/5 116/6/5 109/5/5
f 113/131/6 116/130/6 115/129/6
f 116/130/6 113/131/6 114/132/6
